<svg id="svg" version="1.1" viewBox="0 0 259.49119373776904 300" width="259.49119373776904" height="300" xmlns="http://www.w3.org/2000/svg"><svg xmlns="http://www.w3.org/2000/svg"><defs><clipPath id="clip-1"><rect x="0" y="0" transform="scale(0.14677,0.14677)" width="1768" height="2044" fill="none"/></clipPath></defs><g clip-path="url(#clip-1)" fill="none" fill-rule="nonzero" stroke="none" stroke-width="1" stroke-linecap="butt" stroke-linejoin="miter" stroke-miterlimit="10" stroke-dasharray="" stroke-dashoffset="0" font-family="none" font-weight="none" font-size="none" text-anchor="none" style="mix-blend-mode: normal"><path d="M115.2364,20.13346c-0.07867,-4.93371 -0.17319,-8.93734 3.59193,-12.70314c8.49364,-8.49498 23.58581,-2.68864 23.28302,9.58968c-0.02158,0.87784 -0.09936,2.05993 -0.05093,2.9137c1.76052,1.334 5.59418,3.29369 7.67686,4.54359c6.62524,3.99217 13.28131,7.93107 19.96967,11.8161c21.06751,12.29428 42.03082,24.76747 62.88699,37.41795c2.12818,-1.79648 3.92466,-3.01042 6.7001,-3.43283c9.50196,-1.44628 16.98875,5.80083 16.02299,15.26228c-0.31409,3.26874 -1.93297,6.27329 -4.48826,8.33527c-1.32241,1.07745 -3.15705,1.95499 -4.39432,2.66081c-0.72358,0.41375 -0.45793,7.63973 -0.45646,8.6388l0.01468,15.59472l-0.0044,12.99672c0,1.41663 -0.06311,5.55073 0.12476,6.73532c3.52838,1.58821 5.78131,5.11614 5.73728,8.98532c-0.04403,3.86888 -2.37769,7.34442 -5.94129,8.85176l0.02789,29.17368l0.01614,8.46429c0.00587,2.02984 -0.05577,4.43249 0.2275,6.41977c5.44667,1.86399 8.78425,6.25391 9.22456,12.03376c0.56947,7.49119 -5.03278,13.93885 -12.58268,14.23826c-3.97309,0.15851 -6.95401,-0.49902 -9.99658,-3.25685c-5.45988,2.97358 -10.88454,6.38894 -16.26223,9.5592l-37.38112,22.13894l-26.37622,15.56067l-6.39775,3.80284c-1.38567,0.81751 -2.94217,1.64971 -4.21835,2.60519c0.38762,4.95499 -0.26257,9.2319 -4.13293,12.74853c-5.51081,5.00783 -14.96522,4.30626 -19.86913,-1.2226c-2.95171,-3.3273 -3.28048,-6.99804 -3.02348,-11.27935c-2.16223,-1.79648 -5.42334,-3.5093 -7.9001,-4.99902l-15.35856,-9.10568l-40.44525,-23.93249l-14.74286,-8.78571c-3.84467,-2.27348 -8.25044,-4.75245 -11.92632,-7.20059c-3.21487,2.3498 -4.76683,3.36399 -8.93131,3.40802c-4.01585,0.04403 -7.46605,-1.22114 -10.31723,-4.10225c-2.75134,-2.6771 -3.7372,-6.12035 -3.67129,-9.71331c0.12015,-6.55039 3.72399,-9.66341 8.92509,-12.68982c0.24618,-0.14384 0.28569,-0.57681 0.28479,-0.87476c-0.01672,-5.53914 -0.02709,-11.08121 -0.03092,-16.62035c-0.07565,-8.73434 0.32618,-17.70352 -0.02552,-26.41585c-1.64693,-1.2182 -3.26067,-2.45988 -4.36763,-4.22701c-2.44672,-3.90264 -1.25574,-9.46027 2.36153,-12.24569c0.68582,-0.52808 1.37915,-0.96898 2.10939,-1.43146c0.06242,-10.24286 0.0425,-20.48601 -0.05977,-30.72842l0.00797,-9.21179c-0.00553,-1.23361 0.11987,-2.79892 -0.04873,-3.97852c-2.45379,-1.1068 -4.38886,-2.2362 -6.1121,-4.31037c-2.96695,-3.57123 -3.90382,-8.57466 -2.36743,-13.007c2.65484,-7.65881 11.37273,-11.15753 18.67515,-7.73586c1.21952,0.57138 2.44036,1.43131 3.44985,2.29418c4.74966,-3.01013 9.55215,-5.93601 14.40543,-8.77617c9.73209,-5.82476 19.49677,-11.59491 29.29374,-17.30988c10.14247,-6.08748 20.3275,-12.10377 30.55421,-18.04829c5.45665,-3.19609 10.71238,-6.49242 16.30964,-9.44428zM170.66536,79.07583c6.47701,0.58444 3.66341,-0.54746 8.24706,-4.06512c2.00783,-1.35484 5.07975,-1.77079 7.42955,-1.37202c8.53474,1.4479 10.93444,12.93699 3.88796,17.81859c-2.31018,1.56825 -5.14873,2.15607 -7.89188,1.63444c-3.49902,-0.66517 -5.22945,-2.61781 -7.17123,-5.44462c-1.95646,-0.09731 -9.06018,0.52999 -9.69276,-0.19359c-1.67466,-1.91683 -5.51712,-9.00705 -6.94961,-11.38474l-19.69095,-33.26962c-0.82544,-1.40768 -5.29785,-9.36531 -6.04976,-10.06336c0.01747,0.90587 0.04007,1.81071 0.07206,2.71614c0.20489,5.78542 -0.1682,11.56717 -0.0047,17.36507c0.07735,2.74726 -0.13841,5.49863 0.01248,8.26277c-1.35939,-1.68068 -3.28312,-4.05279 -4.43366,-5.83488c-1.00934,1.64706 -2.69795,4.21497 -3.94829,5.65744c-0.22691,-9.40479 -0.25201,-18.81355 -0.07529,-28.21952c-0.98733,1.25064 -2.72818,4.62285 -3.56668,6.15044c-1.18195,2.15328 -2.3228,3.99658 -3.59281,6.10612l-13.21629,22.28483c-2.29139,3.87666 -4.92534,8.03014 -7.04354,11.92808c2.09472,-0.23938 4.2775,-0.15954 6.39467,-0.16864c2.94702,-0.03919 5.89432,-0.04638 8.84163,-0.02128c-0.51546,1.61903 -4.43938,8.49173 -5.40484,8.58743c-4.23523,0.42021 -11.97593,0.31233 -16.1592,0.3022l-43.06174,-0.06972l-11.11057,-0.03831c-0.59633,-0.00763 -3.76027,-0.17422 -4.08904,0.02069c0.11008,0.54159 5.13214,3.09614 5.93792,3.60749c9.26727,5.8817 19.32138,11.1 28.50338,17.07343c2.81404,-1.54887 5.41042,-2.50934 8.60827,-1.54623c6.46952,1.94853 9.27813,9.72842 5.36815,15.27916c-1.04031,1.47681 -2.62705,1.9795 -3.83102,3.10773l-0.03523,32.93293l-0.0226,9.3273c-0.00778,1.32241 -0.09364,4.35323 0.08263,5.49804c0.55083,0.24804 1.20983,0.51223 1.66174,0.90705c0.9229,0.02495 1.5339,-0.47114 2.3319,-0.94814c0.44413,-3.95695 -0.25905,-9.6135 0.43004,-13.16389c0.21751,-1.12133 4.04486,-7.79207 4.79648,-9.13356l9.48229,-16.92182l6.71698,-11.99545c1.18209,-2.1295 2.76267,-5.34408 4.16639,-7.17402c-3.42079,-0.10054 -6.53792,-0.21825 -9.98718,-0.06252c0.70377,-1.0274 1.5229,-2.57099 2.19746,-3.68278c1.40944,-2.29638 2.83092,-4.58527 4.26458,-6.86668c5.77911,-9.08395 11.48072,-18.21678 17.10455,-27.39775c2.41659,-3.87784 5.55587,-9.23307 8.18542,-12.83968c2.01649,1.80837 4.1275,5.18659 5.88831,7.39873c2.64452,3.3226 5.24061,6.6907 7.84653,10.05073c2.73963,3.53234 5.88699,7.6591 9.00147,10.82378c1.22407,1.24491 5.37622,3.58121 7.01859,4.62373c4.9271,3.12564 10.22994,6.03082 15.01614,9.35651c-0.56947,1.157 -1.51908,2.46003 -2.19569,3.60191c-0.75,1.26766 -1.27838,2.38327 -1.90949,3.71287c-2.46722,-1.13689 -8.84589,-5.19364 -11.44961,-6.83219c-5.60519,-3.52823 -11.18733,-6.67162 -16.8135,-10.06835c0.7001,1.31859 1.49031,2.70558 2.24677,3.99834c5.15431,8.8089 9.64403,18.38014 15.12299,26.97065c5.37769,-3.24907 10.79941,-6.42476 16.2637,-9.52632c0.21429,-1.90523 0.36106,-4.13219 1.30186,-5.8183c3.30969,-5.92588 8.89432,-6.24804 14.30284,-3.43885c4.53523,-2.61399 8.99853,-5.39765 13.5044,-8.04834c8.18689,-4.71341 16.318,-9.5206 24.39481,-14.4204c-0.01908,-1.59481 -0.02202,-3.45881 0.18933,-5.02353c-0.91292,-0.42314 -2.74462,-1.57324 -3.6546,-2.11306c-2.50245,-1.47138 -4.98728,-2.97021 -7.45597,-4.49648c-5.52006,-3.38425 -11.42906,-6.87476 -17.0093,-10.18019l-47.78131,-28.31947c-3.74119,-2.2387 -7.53669,-4.34413 -11.25205,-6.61747c3.01071,4.52363 6.15763,10.19105 8.92427,14.91972c4.59687,7.96585 9.27446,15.88518 14.03278,23.75651c1.3092,2.18439 5.45401,9.61541 6.77202,11.00005zM100.01566,230.03425c0.57857,1.5998 4.1818,6.76908 5.31238,8.50685l12.18537,18.62524c1.74379,2.64628 5.52784,8.1091 6.88371,10.77153c-0.13444,-3.40802 0.0477,-7.80088 0.05328,-11.29843l0.0047,-23.59932c0.00411,-4.28131 0.11448,-8.96184 -0.18009,-13.20499c-1.58381,-0.92025 -14.62764,-8.44814 -14.77838,-9.6135c-0.11844,-0.91732 2.70073,-6.52691 3.37192,-7.38845c4.93459,2.52006 10.78841,6.63992 15.85714,9.49022l27.58841,-16.74217l8.23386,-5.13699c1.69667,-1.05675 3.71918,-2.41879 5.52006,-3.17025c1.55137,3.03523 3.06164,4.21526 4.59247,6.69863c-0.66487,1.19325 -9.77055,6.3816 -11.51712,7.43395c-7.42808,4.47358 -14.83121,8.99119 -22.2069,13.55284c-2.56424,1.58659 -5.61766,3.20841 -8.05318,4.85665c-0.25993,1.95793 -0.14868,6.25538 -0.14912,8.37182l0.06546,16.93151l-0.00117,14.77104c-0.00205,2.61106 -0.15528,5.88405 0.24569,8.45548c0.00749,0.04843 4.33576,2.72701 4.88894,3.14824c5.32661,-2.95157 11.3228,-6.72358 16.62123,-9.87035l36.99658,-21.97016c6.36106,-3.7456 12.71771,-7.6409 19.09051,-11.31751l9.50489,-5.59344c1.6365,-0.98337 3.62671,-2.04892 5.09295,-3.19521c-2.88258,0.12035 -6.84247,-0.00147 -9.78082,-0.01761c-5.1135,-0.02348 -10.22701,-0.01761 -15.34051,0.01908c-1.21673,0.0044 -5.14726,-0.0411 -6.16585,0.13063c-0.66634,0.11301 -2.5817,3.21869 -3.80284,3.97603c-2.39237,1.55431 -5.16781,1.92417 -7.97554,1.50147c-5.34393,-0.80284 -8.49658,-6.17759 -7.54256,-11.33072c0.71771,-3.87035 2.45695,-5.28816 5.45401,-7.42368c0.13503,-3.47554 0.17906,-6.88943 0.09393,-10.36791c-0.03963,-1.66879 0.14971,-3.52544 -0.13503,-5.15166c-2.14873,-1.2226 -3.80284,-3.04697 -5.13258,-5.09883l-24.76468,0.01614l-24.60367,-0.16438c-2.36375,-0.00294 -8.13244,-0.19521 -9.97588,0.21722c-0.6047,0.13503 -6.79902,13.29012 -7.40592,14.50391c-3.18112,6.36546 -6.03023,12.73826 -9.23924,19.01419c2.19159,3.66634 2.82784,6.55186 1.09359,10.66292zM76.91477,190.59247c-0.08953,6.42857 0.18478,12.93493 0.12886,19.37231c-0.02789,3.20108 0.11566,6.41683 -0.20871,9.6047l-28.87001,-0.13063c-5.10851,-0.00881 -11.02588,-0.11448 -16.09521,0.16145l56.99853,33.72798l17.47177,10.38845c2.73728,1.64384 5.64481,3.1409 8.19746,5.01517c-4.31257,-6.79697 -8.67652,-13.56018 -13.09183,-20.2911c-2.37578,-3.57975 -6.62524,-9.5636 -8.50626,-13.09638c-0.26023,-0.07339 -0.97309,-0.10274 -1.24697,-0.07779c-4.62461,0.43297 -9.13019,-2.84295 -10.24447,-7.69961c-0.55905,-2.50538 -0.10876,-5.13112 1.25328,-7.30773c2.44183,-3.83806 4.85357,-4.06703 8.61942,-4.8772c0.49447,-0.99658 1.04618,-2.42172 1.5408,-3.49755c1.31536,-2.82534 2.67461,-5.6316 4.07701,-8.41585c-1.32035,-1.1316 -3.12006,-2.15313 -4.62578,-3.08072l-6.36443,-3.91879c-1.20264,-0.74266 -2.73346,-1.63943 -3.7704,-2.56262c2.47691,-2.68591 2.92661,-3.89824 4.85372,-6.66194c1.66497,0.64579 4.09976,2.25 5.69633,3.2319l8.13684,5.00489c2.27524,-4.30186 4.3045,-8.7138 6.42975,-13.08464l5.35626,-10.84638c1.2841,-2.64335 4.23787,-9.06458 5.67476,-11.19129l-0.18567,0.08659c-1.41385,0.6502 -3.03948,1.68787 -4.41502,2.50391l-6.83777,4.03767l-24.24951,14.23532c-0.17114,0.69569 -0.16512,1.36057 -0.27608,2.068c-0.50152,3.19961 -1.66629,4.96086 -4.41869,6.68395c-0.33963,0.21135 -0.68219,0.41683 -1.02798,0.61791zM19.82613,140.69692c1.88586,0.8909 3.72211,3.07221 4.40548,5.03821c1.48415,4.26928 0.28943,9.00558 -3.51458,11.62838c-0.2479,0.17025 -0.97339,0.72358 -1.13028,0.96869c-0.18068,2.45108 -0.00616,7.29305 0.00426,9.95988l-0.0521,18.88943c0.00822,3.39041 0.21546,7.67172 0.04432,10.93444c1.15773,-1.94472 2.08943,-4.28571 3.13503,-6.34785l8.82696,-17.7681l6.19785,-12.62671c0.65254,-1.30333 2.54633,-4.66292 2.96257,-5.77104c-0.60969,-1.4545 -1.58704,-2.51566 -1.8681,-4.47211c-0.49667,-3.45939 0.0342,-5.16678 1.91199,-7.92593c-7.14995,-14.08591 -13.7454,-28.74848 -21.17686,-42.70391c0.1089,5.18689 -0.01013,10.36057 -0.02921,15.55142c0.00969,4.4658 0.04432,8.93175 0.10362,13.39726c0.02877,3.54716 -0.05797,7.7479 0.17906,11.24795zM68.49819,190.67466c-0.2953,-0.62231 -0.62246,-0.70744 -1.24946,-0.82339c-2.56277,1.63796 -5.15768,3.18053 -7.78796,4.70695c-4.60039,2.66977 -9.1045,5.54941 -13.72162,8.18542l-8.39266,4.88894c-1.80191,1.04795 -4.01477,2.24413 -5.70015,3.48141c5.21668,-0.30088 9.59706,-0.12916 14.78938,-0.12916l22.14423,-0.02789c0.0182,-5.00049 -0.07368,-9.9863 0.06795,-14.98679c0.04785,-1.69374 0.06458,-3.62378 -0.14971,-5.2955zM86.98782,78.94755c5.88757,-10.14936 11.84207,-20.25983 17.86321,-30.33053c2.36551,-4.02857 4.7523,-8.04467 7.16052,-12.04785c1.34325,-2.2657 2.61913,-4.57984 4.03503,-6.80005c-0.05196,-0.13356 -0.05489,-0.19726 -0.14369,-0.28885c-6.8385,4.62578 -15.70259,9.45866 -22.93063,13.77343l-55.62079,32.93293c-1.11546,0.67441 -4.2772,2.06947 -4.82304,2.79672l0.09746,0.26962c11.79159,-0.16027 23.58449,-0.20122 35.37681,-0.12285c6.31864,0.00998 12.67544,0.14251 18.98513,-0.18258zM115.13542,152.21037c0.06252,-2.93982 -0.02246,-5.7455 1.30523,-8.46414c1.66688,-3.41331 4.60758,-5.32471 7.9613,-6.83249c-0.01365,-9.89545 0.13973,-25.49017 -0.13239,-35.8635c-0.06296,-0.08762 -0.12593,-0.17524 -0.18875,-0.26287c-1.36013,1.95279 -3.11712,5.45504 -4.30538,7.63635l-6.37324,11.53209l-16.89437,30.22471c-1.05059,1.89188 -10.28953,17.76517 -10.46052,18.86008l0.13386,0.07192l0.07955,-0.03669c7.79589,-4.48092 15.53601,-9.05577 23.21888,-13.7275c1.67114,-1.02006 4.15391,-2.12084 5.65582,-3.13796zM231.06311,204.33023c-2.93689,-5.17074 -5.82681,-11.83708 -8.48777,-17.19569l-7.74951,-15.69863c-2.00196,-4.00391 -4.25489,-8.30724 -6.12622,-12.34932c-0.50636,-0.36252 -0.28914,-0.30822 -0.86448,-0.33757c-0.90558,0.40656 -2.29843,2.95157 -2.91781,3.87622l-4.58659,6.74119c-1.93297,2.86791 -3.95548,6.64873 -7.10959,8.11791c0.35519,1.61742 0.64726,3.24951 0.87329,4.89188l24.30675,14.28376c4.13454,2.43933 8.70499,4.99755 12.66194,7.67025zM132.86111,136.9977c2.85646,1.34457 4.69667,2.29168 6.71477,4.87544c2.60548,3.33567 2.55059,6.22177 2.51257,10.24917c1.98523,1.32094 4.61081,2.64188 6.73885,3.89677l13.62329,8.068c2.1546,1.25342 6.90264,3.89824 8.6184,5.31311l0.15705,-0.23924c-0.32877,-1.47211 -5.46722,-9.99511 -6.60323,-12.04256c-3.30822,-5.96771 -30.63889,-55.29261 -31.57867,-55.99139c-0.03288,-0.02451 -0.07074,-0.04124 -0.10612,-0.06179c-0.25362,7.14599 -0.09731,14.85925 -0.1296,22.03635c-0.01747,3.8818 -0.23748,10.23229 0.05269,13.89614zM68.41791,126.6728c-2.57833,3.3364 -5.17001,7.67422 -7.54902,11.23914c-1.0183,1.52583 -3.26712,4.832 -4.05279,6.32642c1.58982,3.92994 1.3475,6.06252 -0.01967,9.95783c2.07549,3.44765 5.19511,7.29305 7.44393,10.70841c0.48889,0.74266 3.8545,5.63894 4.27764,6.0499c0.32598,-8.06213 0.01101,-17.13552 0.06311,-25.26781l0.08366,-11.74653c0.00616,-1.5681 0.05489,-5.83459 -0.24687,-7.26737zM180.12622,167.02397c0.14384,-2.40998 0.03229,-5.48337 0.02642,-7.96673l0.03816,-11.87818l0.00881,-12.34007c0.0044,-1.46331 0.29207,-9.35504 -0.61204,-9.95856c-3.22016,1.61169 -6.94961,4.08082 -10.14481,5.91062c-2.25881,1.29452 -5.2089,2.86057 -7.28425,4.28645c3.98043,7.11443 7.96673,14.40734 12.01468,21.46703c1.49853,2.63748 4.38845,8.22211 5.95303,10.47945zM63.56228,120.41096c0.19667,-0.7569 -0.06898,-3.43503 -0.48332,-4.08772c-0.48082,-0.75734 -32.96316,-19.63019 -36.74354,-22.02593c4.61962,9.41698 9.27109,19.13483 13.99594,28.47094c2.25205,4.36849 4.43205,8.77368 6.53938,13.21394c0.35328,0.73841 1.66629,3.24467 1.80793,3.78493c1.83464,0.55568 2.31399,-2.29932 3.27402,-3.45572c2.65465,-3.19755 8.32265,-14.00342 11.60959,-15.90044zM119.55044,177.29648l29.20201,-0.00147c6.24217,0 12.37133,-0.15998 18.60763,0.0499c-1.02006,-0.8953 -29.12143,-17.50685 -29.37564,-17.54795c-1.75744,1.16243 -3.51884,2.5773 -5.61179,3.06898c-0.77877,0.182 -6.0907,0.55333 -6.13459,0.59295c-0.44736,0.40215 -6.18376,12.49462 -6.68762,13.83757zM224.59638,211.05528l0.38307,-0.07339c-0.26712,-0.59736 -33.57534,-20.47896 -36.09393,-21.24511c-0.32143,1.2681 -0.38894,15.40215 -0.08219,16.84198c2.03865,1.45744 3.16292,2.159 4.50587,4.34002c10.11399,0.48141 21.02935,-0.17466 31.28718,0.1365zM216.52544,143.21756c0.35665,0.79432 0.93346,1.31052 1.30773,2.04628c1.8684,3.6794 0.67808,6.97148 -1.31654,10.16668c0.91585,2.39237 3.64579,7.34295 4.91977,9.92759l12.37133,24.86595c0.46233,0.93933 3.37573,7.18004 3.81605,7.46037c0.24364,-0.46086 0.11448,-6.65607 0.12622,-7.60274c0.0998,-7.91536 -0.21722,-15.84834 -0.0411,-23.76223c0.05871,-2.58757 -0.03963,-5.65068 0.17466,-8.18249c-3.33317,-1.61008 -5.46282,-4.97407 -5.49511,-8.67564c-0.03229,-3.7023 2.03865,-7.1021 5.34393,-8.77118c-0.20548,-3.95592 -0.08806,-7.73351 -0.04403,-11.68019l0.05577,-13.1771c0.00294,-2.84706 -0.05724,-5.73068 -0.06605,-8.58097c-0.00734,-2.24574 -0.25098,-4.6362 -0.09834,-6.87035c-1.15949,2.10528 -1.94178,3.87446 -2.99266,5.99897l-6.61937,13.6158c-3.78082,7.71942 -7.82143,15.42505 -11.44227,23.22123zM188.7637,171.01761c0.48728,-0.4271 3.91292,-5.63014 4.5044,-6.5093c2.44814,-3.63405 4.75245,-6.82779 7.45744,-10.28131c-1.8772,-3.36546 -1.80088,-6.6047 -0.182,-10.03532c-1.91977,-2.93601 -3.83513,-5.89212 -5.7593,-8.82505c-1.22114,-1.86106 -3.37867,-4.76918 -4.26663,-6.68733c0.26712,-0.75396 2.78571,-1.81791 3.39335,-2.46707c0.81311,-0.8683 1.24609,-2.20435 2.29697,-2.82681c1.50147,0.52368 10.73337,16.22451 11.60078,16.36101c0.36986,0.05827 0.47701,-0.00587 0.76614,-0.19814c1.58806,-2.68679 3.85861,-7.82172 5.33953,-10.82128l11.00783,-22.31492c1.41928,-2.91135 4.56311,-9.89824 6.32143,-12.12285c-2.44374,1.24183 -5.50978,3.21429 -7.95939,4.66629l-14.49511,8.55191l-10.54403,6.20871c-0.93346,0.55435 -3.70597,2.08562 -4.30039,2.69046c-0.31849,3.28899 -0.9408,5.62779 -3.60763,7.8411c-0.4638,0.37823 -0.9408,0.73826 -1.43102,1.07921c-0.06751,9.52177 -0.36399,18.81869 -0.2862,28.39667c0.04403,5.31311 0.32143,12.18053 0.14384,17.29403zM48.76042,158.84002c-0.74589,1.01859 -1.42823,2.7182 -2.00108,3.92759c-0.72945,1.51468 -1.4774,3.02055 -2.24384,4.51614l-13.19927,26.8136c-1.22246,2.46135 -3.5934,7.91243 -4.96174,9.98043c3.43532,-2.15753 7.16507,-4.23875 10.67701,-6.30528l16.71326,-9.87035c1.93444,-1.14481 3.87666,-2.27789 5.82666,-3.39775c1.01228,-0.57387 2.72759,-1.46477 3.63478,-2.0636c0.03478,-0.18787 0.08072,-1.28718 0.12299,-1.63063c0.13209,-1.07877 0.33288,-1.87867 0.59295,-2.92515c-0.72652,-0.68689 -1.42177,-1.10665 -2.12099,-1.92857c-1.03694,-1.21967 -1.94178,-2.53033 -2.87598,-3.82779c-2.00166,-2.78571 -3.94256,-5.61399 -5.82123,-8.48483c-1.14408,-1.72603 -1.96952,-3.30088 -3.35577,-4.86106c-0.52295,-0.19227 -0.33875,-0.14237 -0.98777,0.05724z" fill="#067c5f"/><path d="M125.33718,31.4479c1.80969,-0.10024 4.65499,-0.13752 6.47319,-0.04711c0.21619,0.31424 0.72989,1.11267 0.97339,1.33503c0.01747,0.90587 0.04007,1.81071 0.07206,2.71614c0.20489,5.78542 -0.1682,11.56717 -0.0047,17.36507c0.07735,2.74726 -0.13841,5.49863 0.01248,8.26277c-1.35939,-1.68068 -3.28312,-4.05279 -4.43366,-5.83488c-1.00934,1.64706 -2.69795,4.21497 -3.94829,5.65744c-0.22691,-9.40479 -0.25201,-18.81355 -0.07529,-28.21952c0.29501,-0.39467 0.62348,-0.85905 0.93082,-1.23493z" fill="#3c3d3e"/><path d="M48.67867,139.76712c1.83464,0.55568 2.31399,-2.29932 3.27402,-3.45572c2.65465,-3.19755 8.32265,-14.00342 11.60959,-15.90044c1.16316,2.9862 5.21389,3.88914 4.85563,6.26184c-2.57833,3.3364 -5.17001,7.67422 -7.54902,11.23914c-1.0183,1.52583 -3.26712,4.832 -4.05279,6.32642c1.58982,3.92994 1.3475,6.06252 -0.01967,9.95783c2.07549,3.44765 5.19511,7.29305 7.44393,10.70841c0.48889,0.74266 3.8545,5.63894 4.27764,6.0499c-0.02803,0.43591 0.43914,1.46184 0.6364,1.90362c3.80504,-1.07583 4.39829,-0.24804 7.85504,0.1864c0.55083,0.24804 1.20983,0.51223 1.66174,0.90705c0.86698,1.34002 1.91977,2.11791 2.62779,3.60176c0.40142,0.83953 0.84746,3.16585 1.33855,3.66928c-0.17114,0.69569 -0.16512,1.36057 -0.27608,2.068c-0.50152,3.19961 -1.66629,4.96086 -4.41869,6.68395c-0.33963,0.21135 -0.68219,0.41683 -1.02798,0.61791l-0.134,0.02055c-0.77334,0.12916 -1.26825,0.33317 -2.01605,0.52544c-2.33028,0.60029 -4.00758,0.20254 -6.26654,-0.4638c-0.2953,-0.62231 -0.62246,-0.70744 -1.24946,-0.82339c-3.4227,-3.59002 -2.46443,-2.9956 -3.99159,-7.27104l-0.05093,-0.13943c0.03478,-0.18787 0.08072,-1.28718 0.12299,-1.63063c0.13209,-1.07877 0.33288,-1.87867 0.59295,-2.92515c-0.72652,-0.68689 -1.42177,-1.10665 -2.12099,-1.92857c-1.03694,-1.21967 -1.94178,-2.53033 -2.87598,-3.82779c-2.00166,-2.78571 -3.94256,-5.61399 -5.82123,-8.48483c-1.14408,-1.72603 -1.96952,-3.30088 -3.35577,-4.86106c-0.52295,-0.19227 -0.33875,-0.14237 -0.98777,0.05724c-0.64432,-0.27153 -3.63229,-0.34932 -4.94457,-1.18004c-0.90719,-0.57387 -2.29506,-1.78914 -3.11023,-2.05773c-0.60969,-1.4545 -1.58704,-2.51566 -1.8681,-4.47211c-0.49667,-3.45939 0.0342,-5.16678 1.91199,-7.92593c1.24491,-0.793 1.94031,-1.516 3.36561,-2.19716c1.64061,-0.7842 3.00338,-0.69936 4.56355,-1.23992z" fill="#3c3d3e"/><path d="M200.54354,144.19168c-1.91977,-2.93601 -3.83513,-5.89212 -5.7593,-8.82505c-1.22114,-1.86106 -3.37867,-4.76918 -4.26663,-6.68733c0.26712,-0.75396 2.78571,-1.81791 3.39335,-2.46707c0.81311,-0.8683 1.24609,-2.20435 2.29697,-2.82681c1.50147,0.52368 10.73337,16.22451 11.60078,16.36101c0.36986,0.05827 0.47701,-0.00587 0.76614,-0.19814c0.73092,0.53527 2.6771,0.58708 3.89971,1.0795c1.08757,0.43855 3.5636,2.41512 4.05088,2.58977c0.35665,0.79432 0.93346,1.31052 1.30773,2.04628c1.8684,3.6794 0.67808,6.97148 -1.31654,10.16668c-1.15949,0.73386 -1.89041,1.60127 -3.16585,2.20597c-1.30479,0.61791 -3.55039,0.68542 -4.65117,1.4501c-0.50636,-0.36252 -0.28914,-0.30822 -0.86448,-0.33757c-0.90558,0.40656 -2.29843,2.95157 -2.91781,3.87622l-4.58659,6.74119c-1.93297,2.86791 -3.95548,6.64873 -7.10959,8.11791c-0.48875,-0.46673 -1.21526,-1.43836 -1.74658,-2.0181c-1.01272,-1.10665 -1.96967,-1.97407 -3.08659,-2.97505c0.1365,-0.38894 0.45793,-1.1184 0.37573,-1.47358c0.48728,-0.4271 3.91292,-5.63014 4.5044,-6.5093c2.44814,-3.63405 4.75245,-6.82779 7.45744,-10.28131c-1.8772,-3.36546 -1.80088,-6.6047 -0.182,-10.03532z" fill="#3c3d3e"/><path d="M92.93938,235.34442c-0.26023,-0.07339 -0.97309,-0.10274 -1.24697,-0.07779c-4.62461,0.43297 -9.13019,-2.84295 -10.24447,-7.69961c-0.55905,-2.50538 -0.10876,-5.13112 1.25328,-7.30773c2.44183,-3.83806 4.85357,-4.06703 8.61942,-4.8772c1.13454,0.59295 2.71688,0.7544 4.05719,1.47358c1.2229,0.6546 2.53518,2.03425 3.54423,2.51566c2.19159,3.66634 2.82784,6.55186 1.09359,10.66292c-0.73679,0.25978 -1.58028,2.17808 -2.6931,3.11155c-1.52275,1.27691 -3.17994,1.43836 -4.38317,2.19863z" fill="#3c3d3e"/><path d="M11.12844,140.38987c2.40699,-0.48772 3.81505,-1.00949 6.31353,-0.34139c0.42035,0.11243 2.12539,0.62627 2.38415,0.64843c1.88586,0.8909 3.72211,3.07221 4.40548,5.03821c1.48415,4.26928 0.28943,9.00558 -3.51458,11.62838c-0.2479,0.17025 -0.97339,0.72358 -1.13028,0.96869c-0.6226,-0.1409 -2.42994,0.52691 -3.36913,0.63258c-1.91347,0.21575 -3.38491,-0.05577 -5.19247,-0.67074c-1.64693,-1.2182 -3.26067,-2.45988 -4.36763,-4.22701c-2.44672,-3.90264 -1.25574,-9.46027 2.36153,-12.24569c0.68582,-0.52808 1.37915,-0.96898 2.10939,-1.43146z" fill="#3c3d3e"/><path d="M237.73239,140.69017c2.62133,-1.32461 5.70205,-1.39359 8.38063,-0.18772c3.52838,1.58821 5.78131,5.11614 5.73728,8.98532c-0.04403,3.86888 -2.37769,7.34442 -5.94129,8.85176c-2.57877,1.09051 -5.50391,1.01712 -8.02544,-0.20254c-3.33317,-1.61008 -5.46282,-4.97407 -5.49511,-8.67564c-0.03229,-3.7023 2.03865,-7.1021 5.34393,-8.77118z" fill="#3c3d3e"/></g></svg></svg>